<svg width="166" height="27" viewBox="0 0 166 27" fill="none" xmlns="http://www.w3.org/2000/svg">
<path d="M0.320005 24.736C0.213338 23.8614 0.128005 22.912 0.0640049 21.888C0.0213381 20.8427 4.76837e-06 19.872 4.76837e-06 18.976C4.76837e-06 17.5467 0.0426714 16.1814 0.128005 14.88C0.234671 13.5574 0.352005 12.1814 0.480005 10.752C0.629338 9.30135 0.789338 7.73335 0.960005 6.04802C1.13067 4.34135 1.28 2.37868 1.408 0.160017C1.68534 0.160017 2.08001 0.245351 2.592 0.416018C3.12534 0.56535 3.65867 0.746684 4.19201 0.960018C4.72534 1.17335 5.19467 1.39735 5.60001 1.63202C6.00534 1.84535 6.24 2.02668 6.304 2.17602C5.94134 3.00802 5.61067 4.10668 5.31201 5.47202C5.03467 6.81602 4.8 8.28802 4.608 9.88802C4.416 11.488 4.26667 13.1307 4.16 14.816C4.05334 16.5014 4 18.08 4 19.552C4 20.2347 4.01067 20.9067 4.03201 21.568C4.05334 22.2294 4.08534 22.8374 4.12801 23.392C4.576 22.7307 5.08801 21.792 5.66401 20.576C6.26134 19.3387 6.86934 17.9627 7.488 16.448C8.128 14.9334 8.75734 13.3547 9.37601 11.712C10.016 10.048 10.6027 8.46935 11.136 6.97602C11.6693 5.46135 12.1173 4.10668 12.48 2.91202C12.864 1.69602 13.1307 0.778685 13.28 0.160017C13.5573 0.160017 13.9627 0.245351 14.496 0.416018C15.0507 0.56535 15.584 0.746684 16.096 0.960018C16.6293 1.17335 17.0987 1.39735 17.504 1.63202C17.9093 1.84535 18.1333 2.02668 18.176 2.17602C17.8133 3.00802 17.4827 4.10668 17.184 5.47202C16.9067 6.81602 16.672 8.28802 16.48 9.88802C16.288 11.488 16.1387 13.1307 16.032 14.816C15.9253 16.5014 15.872 18.08 15.872 19.552C15.872 20.1707 15.872 20.7894 15.872 21.408C15.8933 22.0054 15.9253 22.5494 15.968 23.04C16.6507 21.2694 17.3547 19.52 18.08 17.792C18.8267 16.0427 19.5627 14.3787 20.288 12.8C21.0133 11.2 21.7173 9.71735 22.4 8.35202C23.0827 6.96535 23.712 5.73868 24.288 4.67202C24.864 3.58402 25.3653 2.68802 25.792 1.98402C26.2187 1.28002 26.5493 0.810684 26.784 0.576017C27.2747 0.640018 27.776 0.821351 28.288 1.12002C28.8213 1.39735 29.2907 1.76002 29.696 2.20802C29.0773 2.69868 28.3733 3.50935 27.584 4.64002C26.7947 5.74935 25.984 7.04002 25.152 8.51202C24.32 9.98402 23.4773 11.552 22.624 13.216C21.792 14.88 21.0133 16.5014 20.288 18.08C19.5627 19.6587 18.912 21.1307 18.336 22.496C17.7813 23.8614 17.3547 24.96 17.056 25.792C16.5013 26.048 15.9573 26.176 15.424 26.176C14.7413 26.0907 14.0907 25.92 13.472 25.664C12.8747 25.408 12.448 25.0987 12.192 24.736C12.128 24.3947 12.0747 24 12.032 23.552C11.9893 23.0827 11.9573 22.624 11.936 22.176C11.9147 21.728 11.8933 21.3014 11.872 20.896C11.872 20.4694 11.872 20.1067 11.872 19.808C11.872 17.9094 11.9467 15.9787 12.096 14.016C12.2453 12.032 12.4267 9.90935 12.64 7.64802C12.1493 9.09868 11.6053 10.656 11.008 12.32C10.4107 13.984 9.78134 15.6374 9.12 17.28C8.48001 18.9014 7.81867 20.4587 7.13601 21.952C6.47467 23.424 5.824 24.704 5.184 25.792C4.62934 26.048 4.08534 26.176 3.552 26.176C2.86934 26.0907 2.21867 25.92 1.60001 25.664C1.00267 25.408 0.576005 25.0987 0.320005 24.736ZM39.94 10.112C40.644 10.112 41.188 10.304 41.572 10.688C41.9773 11.072 42.18 11.6054 42.18 12.288C42.18 12.4587 42.1587 12.64 42.116 12.832C42.0947 13.0027 42.0627 13.152 42.02 13.28C41.7427 13.2374 41.4333 13.2054 41.092 13.184C40.7507 13.1414 40.3453 13.12 39.876 13.12C38.9587 13.12 38.0307 13.2054 37.092 13.376C36.1533 13.5254 35.2573 13.6534 34.404 13.76C33.9133 14.8907 33.4653 15.9894 33.06 17.056C32.6547 18.1014 32.3027 19.0614 32.004 19.936C31.7267 20.8107 31.5027 21.568 31.332 22.208C31.1827 22.848 31.0973 23.328 31.076 23.648C32.804 23.2854 34.5427 22.976 36.292 22.72C38.0627 22.464 39.9187 22.272 41.86 22.144C42.0947 22.5067 42.2867 22.9014 42.436 23.328C42.6067 23.7547 42.692 24.2134 42.692 24.704C42.692 24.832 42.692 24.9707 42.692 25.12C42.692 25.2694 42.6707 25.4187 42.628 25.568C42.0307 25.5467 41.4013 25.5254 40.74 25.504C40.0787 25.504 39.2147 25.504 38.148 25.504C37.444 25.504 36.772 25.5147 36.132 25.536C35.5133 25.5787 34.884 25.632 34.244 25.696C33.604 25.76 32.9213 25.8454 32.196 25.952C31.492 26.0587 30.692 26.1867 29.796 26.336C28.8147 25.952 27.8653 25.0134 26.948 23.52C27.3107 22.752 27.812 21.5894 28.452 20.032C29.1133 18.4534 29.9453 16.352 30.948 13.728C29.988 13.4294 29.3587 12.896 29.06 12.128C29.1667 12.0214 29.476 11.8934 29.988 11.744C30.5 11.5734 31.1293 11.4027 31.876 11.232C32.196 10.4 32.4627 9.67468 32.676 9.05602C32.9107 8.43735 33.1133 7.86135 33.284 7.32802C33.4547 6.77335 33.604 6.24002 33.732 5.72802C33.8813 5.19468 34.02 4.61868 34.148 4.00002C33.4013 3.95735 32.8147 3.75468 32.388 3.39202C31.9613 3.00802 31.748 2.51735 31.748 1.92002C31.748 1.74935 31.7693 1.54668 31.812 1.31202C31.876 1.07735 31.94 0.874685 32.004 0.704018C32.4307 0.768018 32.836 0.810685 33.22 0.832018C33.6253 0.853351 34.148 0.864017 34.788 0.864017C36.132 0.864017 37.3907 0.832017 38.564 0.768017C39.7373 0.682683 40.7933 0.59735 41.732 0.512018C42.692 0.426685 43.5133 0.352018 44.196 0.288017C44.8787 0.202684 45.4013 0.160017 45.764 0.160017C46.2547 0.160017 46.692 0.416017 47.076 0.928017C47.46 1.44002 47.748 2.16535 47.94 3.10402C47.2787 3.04002 46.7347 2.99735 46.308 2.97602C45.9027 2.95468 45.54 2.94402 45.22 2.94402C44.0467 2.94402 42.9693 3.00802 41.988 3.13602C41.028 3.24268 40.1 3.36002 39.204 3.48802C39.076 3.68002 38.9267 3.92535 38.756 4.22402C38.6067 4.52268 38.404 4.93868 38.148 5.47202C37.892 6.00535 37.572 6.67735 37.188 7.48802C36.8253 8.29868 36.3773 9.31202 35.844 10.528C36.6547 10.4 37.412 10.304 38.116 10.24C38.8413 10.1547 39.4493 10.112 39.94 10.112ZM68.272 6.11202C68.272 7.43468 67.9093 8.61868 67.184 9.66402C66.4587 10.688 65.4667 11.5414 64.208 12.224C65.0187 12.7787 65.6587 13.4614 66.128 14.272C66.6187 15.0614 66.864 15.936 66.864 16.896C66.864 18.048 66.512 19.1894 65.808 20.32C65.1253 21.4294 64.208 22.4214 63.056 23.296C61.904 24.1494 60.592 24.8427 59.12 25.376C57.648 25.9094 56.144 26.176 54.608 26.176C52.944 26.176 51.4827 25.856 50.224 25.216C48.9867 24.5974 48.016 23.712 47.312 22.56C47.5253 21.92 47.8027 21.1307 48.144 20.192C48.5067 19.232 48.9013 18.2294 49.328 17.184C49.7547 16.1174 50.1813 15.0614 50.608 14.016C51.056 12.9707 51.472 12.032 51.856 11.2C52.6667 9.38668 53.392 7.88268 54.032 6.68802C54.672 5.49335 55.2587 4.54402 55.792 3.84002C54.6187 4.20268 53.552 4.61868 52.592 5.08802C51.632 5.53602 50.928 5.97335 50.48 6.40002C50.288 6.27202 50.0853 6.08002 49.872 5.82402C49.68 5.56802 49.488 5.29068 49.296 4.99202C49.1253 4.67202 48.976 4.35202 48.848 4.03202C48.7413 3.71202 48.6773 3.42402 48.656 3.16802C49.2107 2.78402 49.9253 2.42135 50.8 2.08002C51.696 1.71735 52.6667 1.40802 53.712 1.15202C54.7573 0.896017 55.824 0.69335 56.912 0.544018C58.0213 0.394684 59.0773 0.320017 60.08 0.320017C62.64 0.320017 64.6453 0.832017 66.096 1.85602C67.5467 2.88002 68.272 4.29868 68.272 6.11202ZM56.08 13.76C55.6747 13.568 55.3013 13.28 54.96 12.896C54.4693 13.984 54 15.0507 53.552 16.096C53.1253 17.1414 52.7413 18.112 52.4 19.008C52.0587 19.904 51.7813 20.6827 51.568 21.344C51.3547 22.0054 51.2373 22.4854 51.216 22.784C51.5147 22.9547 51.8667 23.0827 52.272 23.168C52.6987 23.2534 53.2213 23.296 53.84 23.296C55.2907 23.296 56.6773 23.0934 58 22.688C59.3227 22.2827 60.4853 21.7387 61.488 21.056C62.4907 20.352 63.2907 19.552 63.888 18.656C64.4853 17.76 64.784 16.8214 64.784 15.84C64.784 14.432 64.176 13.4187 62.96 12.8C61.296 13.4827 59.4187 13.824 57.328 13.824C57.0293 13.824 56.7947 13.824 56.624 13.824C56.4747 13.824 56.2933 13.8027 56.08 13.76ZM62.288 2.65602C61.84 2.65602 61.36 2.68802 60.848 2.75202C60.3573 2.79468 59.8347 2.86935 59.28 2.97602C59.3653 3.06135 59.4293 3.15735 59.472 3.26402C59.536 3.34935 59.5893 3.44535 59.632 3.55202C59.44 3.80802 59.2053 4.18135 58.928 4.67202C58.6507 5.16268 58.3413 5.73868 58 6.40002C57.6587 7.04002 57.296 7.75468 56.912 8.54402C56.5493 9.33335 56.176 10.144 55.792 10.976C56.1547 10.8907 56.592 10.8267 57.104 10.784C57.6373 10.72 58.16 10.688 58.672 10.688C58.9493 10.688 59.216 10.6987 59.472 10.72C59.7493 10.7414 60.016 10.7734 60.272 10.816C61.296 10.6454 62.2133 10.4 63.024 10.08C63.856 9.73868 64.5707 9.35468 65.168 8.92802C65.7653 8.48002 66.224 7.98935 66.544 7.45602C66.864 6.92268 67.024 6.35735 67.024 5.76002C67.024 4.73602 66.6187 3.96802 65.808 3.45602C64.9973 2.92268 63.824 2.65602 62.288 2.65602ZM69.992 24.96C69.6507 24.9174 69.288 24.768 68.904 24.512C68.5413 24.2774 68.3067 24.0107 68.2 23.712C68.2 23.456 68.232 23.1254 68.296 22.72C68.3813 22.3147 68.4773 21.9094 68.584 21.504C68.6907 21.0774 68.7973 20.6827 68.904 20.32C69.0107 19.936 69.0853 19.648 69.128 19.456C69.384 19.456 69.704 19.52 70.088 19.648C70.4933 19.776 70.8987 19.9574 71.304 20.192C71.7307 20.4054 72.1253 20.6614 72.488 20.96C72.872 21.2374 73.16 21.5254 73.352 21.824C73.16 22.2507 72.9147 22.656 72.616 23.04C72.3173 23.424 71.9973 23.7547 71.656 24.032C71.336 24.3307 71.0267 24.5547 70.728 24.704C70.4293 24.8747 70.184 24.96 69.992 24.96ZM97.5255 2.17602C97.5895 2.53868 97.6322 2.79468 97.6535 2.94402C97.6962 3.07202 97.7175 3.25335 97.7175 3.48802C97.7175 4.19202 97.5575 4.85335 97.2375 5.47202C96.9388 6.06935 96.5228 6.49602 95.9895 6.75202C95.5628 6.17602 95.0402 5.68535 94.4215 5.28002C93.8028 4.85335 93.1202 4.51202 92.3735 4.25602C91.6482 3.97868 90.8908 3.77602 90.1015 3.64802C89.3122 3.52002 88.5442 3.45602 87.7975 3.45602C87.0508 3.45602 86.3468 3.52002 85.6855 3.64802C85.0455 3.75468 84.4695 3.91468 83.9575 4.12802C83.4668 4.32002 83.0722 4.56535 82.7735 4.86402C82.4962 5.16268 82.3575 5.50402 82.3575 5.88802C82.4215 6.35735 82.7095 6.83735 83.2215 7.32802C83.7335 7.79735 84.3628 8.26668 85.1095 8.73602C85.8562 9.18402 86.6775 9.63202 87.5735 10.08C88.4908 10.528 89.3868 10.9547 90.2615 11.36C91.3495 11.872 92.2882 12.352 93.0775 12.8C93.8668 13.2267 94.5175 13.7067 95.0295 14.24C95.5415 14.752 95.9255 15.3387 96.1815 16C96.4375 16.6614 96.5655 17.4614 96.5655 18.4C96.5655 19.488 96.3842 20.512 96.0215 21.472C95.6588 22.4107 95.1255 23.232 94.4215 23.936C93.7388 24.64 92.9068 25.184 91.9255 25.568C90.9442 25.9734 89.8455 26.176 88.6295 26.176C87.4348 26.176 86.1442 25.9947 84.7575 25.632C83.3708 25.2694 82.0695 24.768 80.8535 24.128C79.6588 23.5094 78.6562 22.7947 77.8455 21.984C77.0562 21.152 76.6615 20.2774 76.6615 19.36C76.6615 18.9334 76.7788 18.3894 77.0135 17.728C77.2695 17.0667 77.7175 16.3734 78.3575 15.648C78.4215 16.288 78.7628 17.0454 79.3815 17.92C80.0215 18.7947 80.9708 19.6054 82.2295 20.352C83.4028 21.0347 84.6082 21.536 85.8455 21.856C87.1042 22.1547 88.2775 22.304 89.3655 22.304C90.5602 22.304 91.5308 22.1547 92.2775 21.856C93.0242 21.5574 93.6108 21.2054 94.0375 20.8C94.4642 20.3734 94.7628 19.9467 94.9335 19.52C95.1042 19.0934 95.2002 18.752 95.2215 18.496C95.2002 18.0694 94.9975 17.664 94.6135 17.28C94.2508 16.8747 93.7495 16.4907 93.1095 16.128C92.4908 15.744 91.7655 15.36 90.9335 14.976C90.1015 14.592 89.2375 14.208 88.3415 13.824C86.9975 13.2267 85.8348 12.672 84.8535 12.16C83.8935 11.6267 83.0935 11.0934 82.4535 10.56C81.8348 10.0054 81.3762 9.42935 81.0775 8.83202C80.8002 8.23468 80.6615 7.55202 80.6615 6.78402C80.6615 5.58935 81.0242 4.45868 81.7495 3.39202C82.4748 2.32535 83.5202 1.51468 84.8855 0.960018C85.5682 0.661352 86.2935 0.448018 87.0615 0.320017C87.8508 0.192017 88.6188 0.128017 89.3655 0.128017C90.7735 0.128017 92.1495 0.320017 93.4935 0.704018C94.8375 1.08802 96.1815 1.57868 97.5255 2.17602ZM111.61 21.888C111.61 20.992 111.76 19.84 112.058 18.432C112.357 17.024 112.752 15.52 113.242 13.92C111.834 14.0267 110.416 14.1654 108.986 14.336C107.578 14.5067 106.352 14.6027 105.306 14.624C104.346 16.864 103.578 18.9334 103.002 20.832C102.448 22.7094 102.01 24.544 101.69 26.336C100.88 26.144 100.208 25.8027 99.6743 25.312C99.1409 24.8427 98.6503 24.2454 98.2023 23.52C98.3729 23.1787 98.5649 22.7414 98.7783 22.208C99.0129 21.6747 99.2796 21.0347 99.5783 20.288C99.8983 19.52 100.25 18.6347 100.634 17.632C101.04 16.608 101.498 15.424 102.01 14.08C101.306 13.7814 100.837 13.3654 100.602 12.832C100.709 12.7467 100.944 12.6614 101.306 12.576C101.69 12.4694 102.16 12.3627 102.714 12.256L103.13 11.232C103.578 10.08 103.941 9.10935 104.218 8.32002C104.517 7.53068 104.762 6.76268 104.954 6.01602C105.168 5.24802 105.36 4.40535 105.53 3.48802C105.722 2.57068 105.946 1.40802 106.202 1.71661e-05C107.098 0.170684 107.909 0.565351 108.634 1.18402C109.381 1.80268 110.021 2.54935 110.554 3.42402C110.362 3.68002 110.128 4.06402 109.85 4.57602C109.573 5.08802 109.264 5.70668 108.922 6.43202C108.602 7.13602 108.25 7.93602 107.866 8.83202C107.482 9.70668 107.066 10.6347 106.618 11.616C107.941 11.4454 109.274 11.2854 110.618 11.136C111.984 10.9867 113.189 10.88 114.234 10.816C114.618 9.70668 115.013 8.62935 115.418 7.58402C115.845 6.51735 116.261 5.54668 116.666 4.67202C117.072 3.79735 117.456 3.02935 117.818 2.36802C118.202 1.70668 118.544 1.21602 118.842 0.896017C119.056 0.91735 119.333 1.00268 119.674 1.15202C120.037 1.28002 120.4 1.44002 120.762 1.63202C121.125 1.82402 121.456 2.03735 121.754 2.27202C122.053 2.48535 122.256 2.68802 122.362 2.88002C121.978 3.24268 121.594 3.71202 121.21 4.28802C120.826 4.86402 120.442 5.52535 120.058 6.27202C119.696 7.01868 119.333 7.82935 118.97 8.70402C118.608 9.57868 118.266 10.4854 117.946 11.424C118.373 11.808 118.586 12.288 118.586 12.864C118.586 13.2694 118.501 13.6427 118.33 13.984C118.138 13.9414 117.946 13.92 117.754 13.92C117.562 13.8987 117.36 13.8774 117.146 13.856C116.784 15.008 116.453 16.1494 116.154 17.28C115.856 18.4107 115.6 19.488 115.386 20.512C115.194 21.536 115.034 22.4747 114.906 23.328C114.8 24.1814 114.746 24.896 114.746 25.472C114.746 25.6854 114.746 25.856 114.746 25.984C114.768 26.112 114.789 26.2187 114.81 26.304C114.341 26.2827 114 26.1974 113.786 26.048C113.573 25.92 113.413 25.7707 113.306 25.6C113.2 25.4507 113.104 25.2907 113.018 25.12C112.933 24.9707 112.794 24.8534 112.602 24.768C112.453 24.704 112.314 24.5547 112.186 24.32C112.058 24.0854 111.952 23.8187 111.866 23.52C111.781 23.2214 111.717 22.9227 111.674 22.624C111.632 22.3254 111.61 22.08 111.61 21.888ZM135.476 0.448017C135.881 0.618684 136.297 0.842684 136.724 1.12002C137.151 1.37602 137.545 1.64268 137.908 1.92002C138.271 2.19735 138.569 2.47468 138.804 2.75202C139.06 3.00802 139.199 3.22135 139.22 3.39202C138.857 3.30668 138.495 3.25335 138.132 3.23202C137.769 3.18935 137.439 3.16802 137.14 3.16802C136.18 3.16802 135.22 3.40268 134.26 3.87202C133.321 4.34135 132.425 4.98135 131.572 5.79202C130.719 6.60268 129.929 7.55202 129.204 8.64002C128.479 9.72802 127.849 10.8907 127.316 12.128C126.804 13.3654 126.399 14.6454 126.1 15.968C125.801 17.2907 125.652 18.592 125.652 19.872C125.652 21.536 125.929 22.7734 126.484 23.584C127.039 24.3947 127.849 24.8 128.916 24.8C129.428 24.8 129.983 24.6934 130.58 24.48C131.177 24.288 131.785 24.0107 132.404 23.648C133.023 23.2854 133.631 22.848 134.228 22.336C134.825 21.824 135.38 21.2587 135.892 20.64C136.639 19.744 137.311 18.7307 137.908 17.6C138.505 16.448 139.007 15.232 139.412 13.952C139.839 12.672 140.159 11.36 140.372 10.016C140.607 8.65068 140.724 7.31735 140.724 6.01602C140.724 5.50402 140.713 5.07735 140.692 4.73602C140.671 4.37335 140.639 4.07468 140.596 3.84002C140.575 3.58402 140.553 3.38135 140.532 3.23202C140.511 3.08268 140.489 2.95468 140.468 2.84802C140.724 2.97602 141.001 3.13602 141.3 3.32802C141.62 3.49868 141.908 3.76535 142.164 4.12802C142.441 4.46935 142.665 4.92802 142.836 5.50402C143.028 6.08002 143.124 6.82668 143.124 7.74402C143.124 9.23735 142.943 10.7094 142.58 12.16C142.239 13.5894 141.748 14.9547 141.108 16.256C140.489 17.5574 139.753 18.7734 138.9 19.904C138.047 21.0347 137.129 22.0267 136.148 22.88C134.868 24.0107 133.503 24.8854 132.052 25.504C130.601 26.1227 129.204 26.432 127.86 26.432C125.897 26.432 124.393 25.8027 123.348 24.544C122.324 23.3067 121.812 21.472 121.812 19.04C121.812 17.7387 121.951 16.3627 122.228 14.912C122.527 13.4614 122.932 12.032 123.444 10.624C123.977 9.21602 124.607 7.88268 125.332 6.62402C126.057 5.34402 126.847 4.22402 127.7 3.26402C128.575 2.28268 129.503 1.50402 130.484 0.928017C131.487 0.352018 132.511 0.0640182 133.556 0.0640182C133.897 0.0640182 134.217 0.0960178 134.516 0.160017C134.815 0.202684 135.135 0.298684 135.476 0.448017ZM165.641 6.49602C165.641 7.66935 165.342 8.78935 164.745 9.85602C164.169 10.9227 163.38 11.8614 162.377 12.672C161.396 13.4614 160.233 14.0907 158.889 14.56C157.566 15.0294 156.158 15.264 154.665 15.264C154.132 15.264 153.705 15.2 153.385 15.072C153.086 14.9227 152.745 14.6454 152.361 14.24C151.294 16.5654 150.42 18.7094 149.737 20.672C149.076 22.6134 148.553 24.5014 148.169 26.336C147.358 26.144 146.697 25.8027 146.185 25.312C145.673 24.8427 145.204 24.2454 144.777 23.52C144.99 23.1147 145.246 22.5814 145.545 21.92C145.844 21.2587 146.206 20.448 146.633 19.488C147.06 18.5067 147.55 17.344 148.105 16C148.681 14.6347 149.353 13.0454 150.121 11.232C150.462 10.4 150.761 9.67468 151.017 9.05602C151.273 8.43735 151.497 7.86135 151.689 7.32802C151.881 6.77335 152.052 6.22935 152.201 5.69602C152.372 5.16268 152.542 4.57602 152.713 3.93602C151.71 4.25602 150.782 4.62935 149.929 5.05602C149.097 5.48268 148.404 5.93068 147.849 6.40002C147.657 6.27202 147.454 6.08002 147.241 5.82402C147.049 5.56802 146.868 5.29068 146.697 4.99202C146.526 4.67202 146.377 4.35202 146.249 4.03202C146.121 3.71202 146.046 3.42402 146.025 3.16802C146.644 2.74135 147.412 2.34668 148.329 1.98402C149.246 1.62135 150.228 1.31202 151.273 1.05602C152.318 0.778683 153.396 0.56535 154.505 0.416018C155.636 0.266684 156.713 0.192017 157.737 0.192017C158.953 0.192017 160.052 0.352017 161.033 0.672018C162.014 0.970685 162.846 1.39735 163.529 1.95202C164.212 2.50668 164.734 3.16802 165.097 3.93602C165.46 4.70402 165.641 5.55735 165.641 6.49602ZM159.945 2.65602C159.134 2.65602 158.302 2.72002 157.449 2.84802L157.833 3.42402C157.62 3.70135 157.353 4.11735 157.033 4.67202C156.713 5.22668 156.361 5.89868 155.977 6.68802C155.593 7.45602 155.166 8.32002 154.697 9.28002C154.249 10.24 153.769 11.2534 153.257 12.32C154.921 12.32 156.436 12.1707 157.801 11.872C159.166 11.552 160.329 11.1254 161.289 10.592C162.27 10.0374 163.028 9.39735 163.561 8.67202C164.116 7.94669 164.393 7.16802 164.393 6.33602C164.393 5.22668 164.02 4.34135 163.273 3.68002C162.526 2.99735 161.417 2.65602 159.945 2.65602Z" fill="black"/>
</svg>
